<?xml version="1.0" encoding="UTF-8" standalone="no"?>
<svg width="37px" height="35px" viewBox="0 0 37 35" version="1.1" xmlns="http://www.w3.org/2000/svg" xmlns:xlink="http://www.w3.org/1999/xlink" xmlns:sketch="http://www.bohemiancoding.com/sketch/ns">
    <!-- Generator: Sketch 3.4.4 (17249) - http://www.bohemiancoding.com/sketch -->
    <title>Github logo</title>
    <desc>Created with Sketch.</desc>
    <defs></defs>
    <g id="Welcome" stroke="none" stroke-width="1" fill="none" fill-rule="evenodd" sketch:type="MSPage">
        <g id="Desktop-HD" sketch:type="MSArtboardGroup" transform="translate(-262.000000, -465.000000)" fill="#FFFFFF">
            <g id="Buttons-/-Primary" sketch:type="MSLayerGroup" transform="translate(250.000000, 458.000000)">
                <g id="Github-logo" transform="translate(12.000000, 6.510638)" sketch:type="MSShapeGroup">
                    <g id="Fill-3">
                        <g id="Page-1">
                            <g id="GitHub-Mark">
                                <path d="M18.5414687,0.493723404 C8.50040597,0.493723404 0.357253731,8.40740426 0.357253731,18.1701064 C0.357253731,25.979617 5.56757612,32.6041915 12.7941493,34.9415106 C13.7040299,35.1042766 14.035606,34.5584681 14.035606,34.0897021 C14.035606,33.6708511 14.0199761,32.558617 14.0110448,31.0839574 C8.95255522,32.1517021 7.8852597,28.7140851 7.8852597,28.7140851 C7.05799403,26.6719149 5.8656597,26.1282766 5.8656597,26.1282766 C4.21447761,25.0323191 5.99069851,25.0540213 5.99069851,25.0540213 C7.81604179,25.1788085 8.77616119,26.8759149 8.77616119,26.8759149 C10.3983164,29.5767447 13.0330627,28.7965532 14.0690985,28.3440638 C14.2343284,27.2025319 14.7043403,26.4234255 15.2234746,25.9817872 C11.185391,25.5358085 6.93965373,24.0188298 6.93965373,17.2455957 C6.93965373,15.3162766 7.6485791,13.7374468 8.81188657,12.5025957 C8.62432836,12.0555319 8.00025075,10.2575106 8.99051343,7.82470213 C8.99051343,7.82470213 10.5166567,7.34942553 13.9909493,9.63682979 C15.4411761,9.24402128 16.9974627,9.04870213 18.5437015,9.04110638 C20.0888239,9.04870213 21.643994,9.24402128 23.0964537,9.63682979 C26.5685134,7.34942553 28.0924239,7.82470213 28.0924239,7.82470213 C29.0849194,10.2575106 28.4608418,12.0555319 28.2744,12.5025957 C29.4399403,13.7374468 30.1432836,15.3162766 30.1432836,17.2455957 C30.1432836,24.0361915 25.8908478,25.530383 21.8404836,25.9676809 C22.4924716,26.5134894 23.0741254,27.5920851 23.0741254,29.2414468 C23.0741254,31.6037234 23.051797,33.5102553 23.051797,34.0897021 C23.051797,34.5628085 23.3800239,35.1129574 24.3021851,34.9404255 C31.5231761,32.5976809 36.7290328,25.9774468 36.7290328,18.1701064 C36.7290328,8.40740426 28.5858806,0.493723404 18.5414687,0.493723404" id="Fill-3"></path>
                            </g>
                        </g>
                    </g>
                </g>
            </g>
        </g>
    </g>
</svg>